# xmcd
#
# Track frame offsets:
# 150
# 16229
# 32732
# 54754
# 71161
# 86737
# 102357
# 115507
# 130599
# 147877
# 165499
# 181609
# 197789
# 215613
# 231756
# 250890
#
# Disc length: 3607 seconds
#
#
# Revision: 0
# Processed by: cddbd v1.5.2PL0 Copyright (c) Steve Scherf et al.
# Submitted via: FreeRIP 2.951 
#
DISCID=d00e1510
DTITLE=Shania Twain - Come On Ever
DYEAR=1999
DGENRE=Blues
TTITLE0=You're still the one
TTITLE1=When
TTITLE2=From this moment on
TTITLE3=Black eyes, bue tears
TTITLE4=I wont`t leave you lonely
TTITLE5=I'm holdin´ on to love (to save my live)
TTITLE6=Come on over
TTITLE7=You`ve got a way (Notting Hill remix)
TTITLE8=Whatever you do! Dont`t
TTITLE9=Man! I feel lie a woman!
TTITLE10=Love gets me every time
TTITLE11=Don`t be stupid (you know I love you)
TTITLE12=That don`t impress me much (UK dance mix)
TTITLE13=Honey, I`m home
TTITLE14=If you wanna touch her, ask!
TTITLE15=Rock this country!
EXTD=
EXTT0=
EXTT1=
EXTT2=
EXTT3=
EXTT4=
EXTT5=
EXTT6=
EXTT7=
EXTT8=
EXTT9=
EXTT10=
EXTT11=
EXTT12=
EXTT13=
EXTT14=
EXTT15=
PLAYORDER=
